<?plantuml 1.2026.2?><svg xmlns="http://www.w3.org/2000/svg" xmlns:xlink="http://www.w3.org/1999/xlink" contentStyleType="text/css" data-diagram-type="DESCRIPTION" height="897px" preserveAspectRatio="none" style="width:885px;height:897px;background:#FFFFFF;" version="1.1" viewBox="0 0 885 897" width="885px" zoomAndPan="magnify"><defs/><g><!--cluster User Interface (CLI)--><g class="cluster" data-qualified-name="User Interface .CLI." data-source-line="4" id="ent0002"><path d="M117.5,6.294 L247.6355,6.294 A3.75,3.75 0 0 1 250.1355,8.794 L257.1355,29.0939 L387.5,29.0939 A2.5,2.5 0 0 1 390,31.5939 L390,208.354 A2.5,2.5 0 0 1 387.5,210.854 L117.5,210.854 A2.5,2.5 0 0 1 115,208.354 L115,8.794 A2.5,2.5 0 0 1 117.5,6.294" fill="none" style="stroke:#000000;stroke-width:1.5;"/><line style="stroke:#000000;stroke-width:1.5;" x1="115" x2="257.1355" y1="29.0939" y2="29.0939"/><text fill="#000000" font-family="sans-serif" font-size="14" font-weight="bold" lengthAdjust="spacing" textLength="129.1355" x="119" y="21.2999">User Interface (CLI)</text></g><!--cluster Logic Layer (analyzer.py)--><g class="cluster" data-qualified-name="Logic Layer .analyzer.py." data-source-line="8" id="ent0006"><path d="M8.5,259.854 L177.5553,259.854 A3.75,3.75 0 0 1 180.0553,262.354 L187.0553,282.6539 L499.5,282.6539 A2.5,2.5 0 0 1 502,285.1539 L502,637.954 A2.5,2.5 0 0 1 499.5,640.454 L8.5,640.454 A2.5,2.5 0 0 1 6,637.954 L6,262.354 A2.5,2.5 0 0 1 8.5,259.854" fill="none" style="stroke:#000000;stroke-width:1.5;"/><line style="stroke:#000000;stroke-width:1.5;" x1="6" x2="187.0553" y1="282.6539" y2="282.6539"/><text fill="#000000" font-family="sans-serif" font-size="14" font-weight="bold" lengthAdjust="spacing" textLength="168.0553" x="10" y="274.8599">Logic Layer (analyzer.py)</text></g><!--cluster Output Layer (cli.py / openpyxl)--><g class="cluster" data-qualified-name="Output Layer .cli.py . openpyxl." data-source-line="30" id="ent0020"><path d="M528.5,527.694 L738.7712,527.694 A3.75,3.75 0 0 1 741.2712,530.194 L748.2712,550.4939 L875.5,550.4939 A2.5,2.5 0 0 1 878,552.9939 L878,887.554 A2.5,2.5 0 0 1 875.5,890.054 L528.5,890.054 A2.5,2.5 0 0 1 526,887.554 L526,530.194 A2.5,2.5 0 0 1 528.5,527.694" fill="none" style="stroke:#000000;stroke-width:1.5;"/><line style="stroke:#000000;stroke-width:1.5;" x1="526" x2="748.2712" y1="550.4939" y2="550.4939"/><text fill="#000000" font-family="sans-serif" font-size="14" font-weight="bold" lengthAdjust="spacing" textLength="209.2712" x="530" y="542.6999">Output Layer (cli.py / openpyxl)</text></g><!--entity User--><g class="entity" data-qualified-name="User Interface .CLI..User" data-source-line="5" id="ent0003"><rect fill="#F1F1F1" height="46.7999" rx="2.5" ry="2.5" style="stroke:#181818;stroke-width:0.5;" width="69.5539" x="131.22" y="41.294"/><rect fill="#F1F1F1" height="10" style="stroke:#181818;stroke-width:0.5;" width="15" x="180.7739" y="46.294"/><rect fill="#F1F1F1" height="2" style="stroke:#181818;stroke-width:0.5;" width="4" x="178.7739" y="48.294"/><rect fill="#F1F1F1" height="2" style="stroke:#181818;stroke-width:0.5;" width="4" x="178.7739" y="52.294"/><text fill="#000000" font-family="sans-serif" font-size="14" lengthAdjust="spacing" textLength="29.5539" x="146.22" y="74.2999">User</text></g><!--entity cli.py--><g class="entity" data-qualified-name="User Interface .CLI..cli.py" data-source-line="5" id="ent0004"><ellipse cx="166.001" cy="179.9733" fill="#F1F1F1" rx="25.551" ry="14.8793" style="stroke:#181818;stroke-width:0.5;"/><text fill="#000000" font-family="sans-serif" font-size="14" lengthAdjust="spacing" textLength="31.8919" x="150.055" y="184.8733">cli.py</text></g><!--entity SensorAnalyzer--><g class="entity" data-qualified-name="Logic Layer .analyzer.py..SensorAnalyzer" data-source-line="9" id="ent0007"><rect fill="#F1F1F1" height="46.7999" rx="2.5" ry="2.5" style="stroke:#181818;stroke-width:0.5;" width="138.8116" x="96.59" y="299.854"/><rect fill="#F1F1F1" height="10" style="stroke:#181818;stroke-width:0.5;" width="15" x="215.4016" y="304.854"/><rect fill="#F1F1F1" height="2" style="stroke:#181818;stroke-width:0.5;" width="4" x="213.4016" y="306.854"/><rect fill="#F1F1F1" height="2" style="stroke:#181818;stroke-width:0.5;" width="4" x="213.4016" y="310.854"/><text fill="#000000" font-family="sans-serif" font-size="14" lengthAdjust="spacing" textLength="98.8116" x="111.59" y="332.8599">SensorAnalyzer</text></g><!--entity CSV Directory--><g class="entity" data-qualified-name="Logic Layer .analyzer.py..CSV Directory" data-source-line="10" id="ent0009"><rect fill="#F1F1F1" height="46.7999" rx="2.5" ry="2.5" style="stroke:#181818;stroke-width:0.5;" width="128.6756" x="21.66" y="428.654"/><rect fill="#F1F1F1" height="10" style="stroke:#181818;stroke-width:0.5;" width="15" x="130.3356" y="433.654"/><rect fill="#F1F1F1" height="2" style="stroke:#181818;stroke-width:0.5;" width="4" x="128.3356" y="435.654"/><rect fill="#F1F1F1" height="2" style="stroke:#181818;stroke-width:0.5;" width="4" x="128.3356" y="439.654"/><text fill="#000000" font-family="sans-serif" font-size="14" lengthAdjust="spacing" textLength="88.6756" x="36.66" y="461.6599">CSV Directory</text></g><g class="entity" data-qualified-name="Logic Layer .analyzer.py..GMN12" data-source-line="14" id="ent0013"><path d="M270.32,294.854 L270.32,319.254 L235.56,323.254 L270.32,327.254 L270.32,351.654 A0,0 0 0 0 270.32,351.654 L485.6702,351.654 A0,0 0 0 0 485.6702,351.654 L485.6702,304.854 L475.6702,294.854 L270.32,294.854 A0,0 0 0 0 270.32,294.854" fill="#FAFAFA" style="stroke:#181818;stroke-width:0.5;"/><path d="M475.6702,294.854 L475.6702,304.854 L485.6702,304.854 L475.6702,294.854" fill="#FAFAFA" style="stroke:#181818;stroke-width:0.5;"/><text fill="#000000" font-family="sans-serif" font-size="13" font-weight="bold" lengthAdjust="spacing" textLength="122.8112" x="276.32" y="311.931">get_files_in_range()</text><text fill="#000000" font-family="sans-serif" font-size="13" lengthAdjust="spacing" textLength="163.2932" x="276.32" y="327.531">Parsing filenames into dates</text><text fill="#000000" font-family="sans-serif" font-size="13" lengthAdjust="spacing" textLength="194.3502" x="276.32" y="343.131">Filtering and chronological sorting</text></g><!--entity Data Processing--><g class="entity" data-qualified-name="Logic Layer .analyzer.py..Data Processing" data-source-line="19" id="ent0015"><rect fill="#F1F1F1" height="46.7999" rx="2.5" ry="2.5" style="stroke:#181818;stroke-width:0.5;" width="142.7036" x="185.65" y="428.654"/><rect fill="#F1F1F1" height="10" style="stroke:#181818;stroke-width:0.5;" width="15" x="308.3536" y="433.654"/><rect fill="#F1F1F1" height="2" style="stroke:#181818;stroke-width:0.5;" width="4" x="306.3536" y="435.654"/><rect fill="#F1F1F1" height="2" style="stroke:#181818;stroke-width:0.5;" width="4" x="306.3536" y="439.654"/><text fill="#000000" font-family="sans-serif" font-size="14" lengthAdjust="spacing" textLength="102.7036" x="200.65" y="461.6599">Data Processing</text></g><g class="entity" data-qualified-name="Logic Layer .analyzer.py..GMN17" data-source-line="22" id="ent0018"><path d="M21.88,536.454 L21.88,624.4541 A0,0 0 0 0 21.88,624.4541 L486.1285,624.4541 A0,0 0 0 0 486.1285,624.4541 L486.1285,546.454 L476.1285,536.454 L259.03,536.454 L256.46,475.944 L251.03,536.454 L21.88,536.454 A0,0 0 0 0 21.88,536.454" fill="#FAFAFA" style="stroke:#181818;stroke-width:0.5;"/><path d="M476.1285,536.454 L476.1285,546.454 L486.1285,546.454 L476.1285,536.454" fill="#FAFAFA" style="stroke:#181818;stroke-width:0.5;"/><text fill="#000000" font-family="sans-serif" font-size="13" font-weight="bold" lengthAdjust="spacing" textLength="213.1223" x="27.88" y="553.531">process_data() delegates tasks to:</text><text fill="#000000" font-family="sans-serif" font-size="13" lengthAdjust="spacing" textLength="10.842" x="27.88" y="569.131">1.</text><text fill="#000000" font-family="sans-serif" font-size="13" font-weight="bold" lengthAdjust="spacing" textLength="141.5962" x="42.336" y="569.131">_load_measurements()</text><text fill="#000000" font-family="sans-serif" font-size="13" lengthAdjust="spacing" textLength="237.0032" x="183.9322" y="569.131">: Loading data from files into a dictionary.</text><text fill="#000000" font-family="sans-serif" font-size="13" lengthAdjust="spacing" textLength="10.842" x="27.88" y="584.731">2.</text><text fill="#000000" font-family="sans-serif" font-size="13" font-weight="bold" lengthAdjust="spacing" textLength="137.9822" x="42.336" y="584.731">_calculate_threshold()</text><text fill="#000000" font-family="sans-serif" font-size="13" lengthAdjust="spacing" textLength="288.2753" x="180.3182" y="584.731">: Streaming calculation of median (itertools.chain).</text><text fill="#000000" font-family="sans-serif" font-size="13" lengthAdjust="spacing" textLength="10.842" x="27.88" y="600.331">3.</text><text fill="#000000" font-family="sans-serif" font-size="13" font-weight="bold" lengthAdjust="spacing" textLength="123.5262" x="42.336" y="600.331">_determine_status()</text><text fill="#000000" font-family="sans-serif" font-size="13" lengthAdjust="spacing" textLength="305.2663" x="165.8622" y="600.331">: Mapping statuses (+, !, -) for a single measurement.</text><text fill="#000000" font-family="sans-serif" font-size="13" lengthAdjust="spacing" textLength="268.7753" x="27.88" y="615.931">4. Building the final Pandas DataFrame matrix.</text></g><!--entity Pandas DataFrame--><g class="entity" data-qualified-name="Output Layer .cli.py . openpyxl..Pandas DataFrame" data-source-line="31" id="ent0021"><ellipse cx="618.9954" cy="580.4551" fill="#F1F1F1" rx="76.8054" ry="17.7611" style="stroke:#181818;stroke-width:0.5;"/><text fill="#000000" font-family="sans-serif" font-size="14" lengthAdjust="spacing" textLength="121.3795" x="558.3056" y="585.355">Pandas DataFrame</text></g><!--entity Console--><g class="entity" data-qualified-name="Output Layer .cli.py . openpyxl..Console" data-source-line="32" id="ent0023"><rect fill="#F1F1F1" height="46.7999" rx="2.5" ry="2.5" style="stroke:#181818;stroke-width:0.5;" width="91.3518" x="542.32" y="703.454"/><rect fill="#F1F1F1" height="10" style="stroke:#181818;stroke-width:0.5;" width="15" x="613.6718" y="708.454"/><rect fill="#F1F1F1" height="2" style="stroke:#181818;stroke-width:0.5;" width="4" x="611.6718" y="710.454"/><rect fill="#F1F1F1" height="2" style="stroke:#181818;stroke-width:0.5;" width="4" x="611.6718" y="714.454"/><text fill="#000000" font-family="sans-serif" font-size="14" lengthAdjust="spacing" textLength="51.3518" x="557.32" y="736.4599">Console</text></g><!--entity Excel Writer--><g class="entity" data-qualified-name="Output Layer .cli.py . openpyxl..Excel Writer" data-source-line="33" id="ent0025"><rect fill="#F1F1F1" height="46.7999" rx="2.5" ry="2.5" style="stroke:#181818;stroke-width:0.5;" width="115.4457" x="668.28" y="703.454"/><rect fill="#F1F1F1" height="10" style="stroke:#181818;stroke-width:0.5;" width="15" x="763.7257" y="708.454"/><rect fill="#F1F1F1" height="2" style="stroke:#181818;stroke-width:0.5;" width="4" x="761.7257" y="710.454"/><rect fill="#F1F1F1" height="2" style="stroke:#181818;stroke-width:0.5;" width="4" x="761.7257" y="714.454"/><text fill="#000000" font-family="sans-serif" font-size="14" lengthAdjust="spacing" textLength="75.4457" x="683.28" y="736.4599">Excel Writer</text></g><!--entity results.xlsx--><g class="entity" data-qualified-name="Output Layer .cli.py . openpyxl..results.xlsx" data-source-line="35" id="ent0027"><rect fill="#F1F1F1" height="46.7999" rx="2.5" ry="2.5" style="stroke:#181818;stroke-width:0.5;" width="109.2297" x="654.39" y="827.254"/><rect fill="#F1F1F1" height="10" style="stroke:#181818;stroke-width:0.5;" width="15" x="743.6197" y="832.254"/><rect fill="#F1F1F1" height="2" style="stroke:#181818;stroke-width:0.5;" width="4" x="741.6197" y="834.254"/><rect fill="#F1F1F1" height="2" style="stroke:#181818;stroke-width:0.5;" width="4" x="741.6197" y="838.254"/><text fill="#000000" font-family="sans-serif" font-size="14" lengthAdjust="spacing" textLength="69.2297" x="669.39" y="860.2599">results.xlsx</text></g><!--link User to cli.py--><g class="link" data-entity-1="ent0003" data-entity-2="ent0004" data-link-type="dependency" data-source-line="5" id="lnk5"><path d="M166,88.344 C166,111.074 166,139.384 166,158.614" fill="none" id="User-to-cli.py" style="stroke:#181818;stroke-width:1;"/><polygon fill="#181818" points="166,164.614,170,155.614,166,159.614,162,155.614,166,164.614" style="stroke:#181818;stroke-width:1;"/><text fill="#000000" font-family="sans-serif" font-size="13" lengthAdjust="spacing" textLength="206.6872" x="167" y="131.171">start_date, end_date, output_format</text></g><!--link cli.py to SensorAnalyzer--><g class="link" data-entity-1="ent0004" data-entity-2="ent0007" data-link-type="dependency" data-source-line="9" id="lnk8"><path d="M166,195.294 C166,219.854 166,264.164 166,293.544" fill="none" id="cli.py-to-SensorAnalyzer" style="stroke:#181818;stroke-width:1;"/><polygon fill="#181818" points="166,299.544,170,290.544,166,294.544,162,290.544,166,299.544" style="stroke:#181818;stroke-width:1;"/><text fill="#000000" font-family="sans-serif" font-size="13" lengthAdjust="spacing" textLength="122.7981" x="167" y="239.931">Directory initialization</text></g><!--link SensorAnalyzer to CSV Directory--><g class="link" data-entity-1="ent0007" data-entity-2="ent0009" data-link-type="dependency" data-source-line="10" id="lnk10"><path d="M103.43,347.014 C88.58,355.524 74.58,366.844 66,381.654 C57.64,396.084 60.5775,408.9434 68.0075,423.0734" fill="none" id="SensorAnalyzer-to-CSV Directory" style="stroke:#181818;stroke-width:1;"/><polygon fill="#181818" points="70.8,428.384,70.1517,418.5565,68.4729,423.9585,63.0709,422.2798,70.8,428.384" style="stroke:#181818;stroke-width:1;"/><text fill="#000000" font-family="sans-serif" font-size="13" lengthAdjust="spacing" textLength="59.241" x="67" y="394.731">Glob *.csv</text></g><!--link CSV Directory to SensorAnalyzer--><g class="link" data-entity-1="ent0009" data-entity-2="ent0007" data-link-type="dependency" data-source-line="11" id="lnk11"><path d="M107.81,428.384 C115.69,419.534 124.29,409.024 131,398.654 C141.63,382.234 148.6052,367.6236 154.9252,352.4336" fill="none" id="CSV Directory-to-SensorAnalyzer" style="stroke:#181818;stroke-width:1;"/><polygon fill="#181818" points="157.23,346.894,150.0796,353.6669,155.3093,351.5104,157.4658,356.74,157.23,346.894" style="stroke:#181818;stroke-width:1;"/><text fill="#000000" font-family="sans-serif" font-size="13" lengthAdjust="spacing" textLength="40.443" x="141.13" y="394.731">File list</text></g><!--link SensorAnalyzer to Data Processing--><g class="link" data-entity-1="ent0007" data-entity-2="ent0015" data-link-type="dependency" data-source-line="19" id="lnk16"><path d="M182.27,346.924 C198.83,370.004 220.8622,400.699 237.3722,423.709" fill="none" id="SensorAnalyzer-to-Data Processing" style="stroke:#181818;stroke-width:1;"/><polygon fill="#181818" points="240.87,428.584,238.8732,418.9397,237.9551,424.5215,232.3733,423.6035,240.87,428.584" style="stroke:#181818;stroke-width:1;"/><text fill="#000000" font-family="sans-serif" font-size="13" lengthAdjust="spacing" textLength="77.3111" x="217.95" y="394.731">Selected files</text></g><!--link Data Processing to Pandas DataFrame--><g class="link" data-entity-1="ent0015" data-entity-2="ent0021" data-link-type="dependency" data-source-line="31" id="lnk22"><path d="M328.74,468.434 C378.26,480.044 445.16,497.714 502,519.694 C533.91,532.034 563.3746,547.4753 586.6246,560.5953" fill="none" id="Data Processing-to-Pandas DataFrame" style="stroke:#181818;stroke-width:1;"/><polygon fill="#181818" points="591.85,563.544,585.9777,555.6373,587.4955,561.0867,582.0461,562.6045,591.85,563.544" style="stroke:#181818;stroke-width:1;"/></g><!--link Pandas DataFrame to Console--><g class="link" data-entity-1="ent0021" data-entity-2="ent0023" data-link-type="dependency" data-source-line="32" id="lnk24"><path d="M605.15,598.384 C594.29,612.824 580.04,634.654 574,656.454 C569.73,671.854 571.4752,683.8245 576.1252,697.4745" fill="none" id="Pandas DataFrame-to-Console" style="stroke:#181818;stroke-width:1;"/><polygon fill="#181818" points="578.06,703.154,578.9442,693.3449,576.4477,698.4211,571.3715,695.9246,578.06,703.154" style="stroke:#181818;stroke-width:1;"/><text fill="#000000" font-family="sans-serif" font-size="13" lengthAdjust="spacing" textLength="106.9121" x="575" y="669.531">print(df.to_string())</text></g><!--link Pandas DataFrame to Excel Writer--><g class="link" data-entity-1="ent0021" data-entity-2="ent0025" data-link-type="dependency" data-source-line="33" id="lnk26"><path d="M635.77,598.174 C650.02,612.834 670.55,635.084 686,656.454 C696.76,671.334 704.219,684.0239 711.679,697.9639" fill="none" id="Pandas DataFrame-to-Excel Writer" style="stroke:#181818;stroke-width:1;"/><polygon fill="#181818" points="714.51,703.254,713.7902,693.4315,712.1508,698.8455,706.7367,697.2061,714.51,703.254" style="stroke:#181818;stroke-width:1;"/><text fill="#000000" font-family="sans-serif" font-size="13" lengthAdjust="spacing" textLength="135.8242" x="698" y="669.531">save_formatted_excel()</text></g><!--link Excel Writer to results.xlsx--><g class="link" data-entity-1="ent0025" data-entity-2="ent0027" data-link-type="dependency" data-source-line="35" id="lnk28"><path d="M722.84,750.474 C719.79,772.354 716.0199,799.3716 712.9699,821.2116" fill="none" id="Excel Writer-to-results.xlsx" style="stroke:#181818;stroke-width:1;"/><polygon fill="#181818" points="712.14,827.154,717.3463,818.7937,712.8315,822.202,709.4232,817.6872,712.14,827.154" style="stroke:#181818;stroke-width:1;"/><text fill="#000000" font-family="sans-serif" font-size="13" lengthAdjust="spacing" textLength="151.7232" x="719.52" y="793.331">Color and width formatting</text></g><?plantuml-src VLHDRzim3BtdLt0zsLdhOH-d7WPixJeKoB02mRP3KHYinSH2PScGw3RfiFy-KawJBCNgWs58v2FVuwFJdVKzHkoW2puqRGmT0SU19cbxarequS7w9IpG9PfCUcpkS4bmz2DHX4lF51VO41Hdiylo27vFG9vhlRo1avEFK3JELlswX5D8Z95hWqp7GDviliB0_S3r8iGEUV9dhy8iB6q3CrnBeG8zklKZHSLwAhF5raBNS_8fn4-Rk1ifU6uZDHpY6gotRD7PHsGR_DZZONm6EPl_tAKfnbSNRc5QDUb-p3e8-4_b2-i8d4sSa_BB1oQ8TjaoXCMpd1oYptIw9553ybDjVHtHBwaefzDjm1N6bESX8HuxIaAE0wYOQHiazMKm6eRUW8xM1wToeWCfotAJOsKCkR792vAS8oDSnT1Gqi9ARqvE122JcqW776y3S-WooSFKFPRzUAecmA848uXBfG2CwKxUuNIFyzjACceNqDGTOHeYTUGvgIwdC9DZPQf8i10JZrsDiY0Os-ZCCQwhBTwxZ2TYD8EJeZMtaL8Rd1aHvnm9EyLy2X409TIHiUYXi28kX-1IrRHeVRb3Vf-H3Kc0050jdkTXq-Wtx7i57S-am-BrCRmwXfCInFtIgcealjcZk0F-KC7dmRhCb5iIZZ8bCOCtc41rlf1rbLpaQ5VLlyFTNwhlUTsUjcfS87W3eIVVhrTkjyBFnfwt-R1WEIxYi-FDDWNnaoErJ2zkvC8iAWuYYbgpA5zE_h9goC6lg68hGi9xslmcn7erwNLHxinta90nPAo3urIjN5efnfbiGSmxyM0Djx21qtNuynS0?></g></svg>